<svg xmlns="http://www.w3.org/2000/svg" xmlns:xlink="http://www.w3.org/1999/xlink" width="2000" zoomAndPan="magnify" viewBox="0 0 1500 1499.999933" height="2000" preserveAspectRatio="xMidYMid meet" version="1.0"><defs><g/><clipPath id="b6a75ab3ee"><rect x="0" width="726" y="0" height="1447"/></clipPath></defs><rect x="-150" width="1800" fill="#ffffff" y="-149.999993" height="1799.99992" fill-opacity="1"/><rect x="-150" width="1800" fill="#000000" y="-149.999993" height="1799.99992" fill-opacity="1"/><g transform="matrix(1, 0, 0, 1, 392, 0.000000000000112861)"><g clip-path="url(#b6a75ab3ee)"><g fill="#ffffff" fill-opacity="1"><g transform="translate(0.672548, 1159.099065)"><g><path d="M 197.78125 -235.765625 C 197.78125 -197.941406 211.742188 -167.84375 239.671875 -145.46875 C 267.597656 -123.09375 307.585938 -111.90625 359.640625 -111.90625 C 411.679688 -111.90625 451.320312 -120.316406 478.5625 -137.140625 C 505.800781 -153.972656 519.421875 -178.695312 519.421875 -211.3125 C 519.421875 -230.738281 512.394531 -247.5625 498.34375 -261.78125 C 484.289062 -276.007812 450.894531 -289.375 398.15625 -301.875 L 268.03125 -332.0625 C 185.800781 -351.488281 129.851562 -377.941406 100.1875 -411.421875 C 70.519531 -444.910156 55.6875 -491.144531 55.6875 -550.125 C 55.6875 -619.175781 80.234375 -675.644531 129.328125 -719.53125 C 178.429688 -763.425781 252.078125 -785.375 350.265625 -785.375 C 447.765625 -785.375 521.753906 -760.738281 572.234375 -711.46875 C 622.722656 -662.195312 648.144531 -604.425781 648.5 -538.15625 L 494.953125 -538.15625 C 491.484375 -575.632812 476.910156 -604.175781 451.234375 -623.78125 C 425.554688 -643.382812 387.910156 -653.1875 338.296875 -653.1875 C 298.398438 -653.1875 266.21875 -644.941406 241.75 -628.453125 C 217.289062 -611.972656 205.0625 -589.679688 205.0625 -561.578125 C 205.0625 -542.148438 210.4375 -526.015625 221.1875 -513.171875 C 231.945312 -500.335938 249.300781 -490.972656 273.25 -485.078125 L 477.78125 -434.578125 C 551.6875 -416.535156 602.691406 -390.597656 630.796875 -356.765625 C 658.898438 -322.941406 672.953125 -280.703125 672.953125 -230.046875 C 672.953125 -146.773438 644.066406 -84.234375 586.296875 -42.421875 C 528.523438 -0.609375 456.960938 20.296875 371.609375 20.296875 C 261.273438 20.296875 179.128906 -3.207031 125.171875 -50.21875 C 71.210938 -97.238281 44.234375 -159.085938 44.234375 -235.765625 Z M 197.78125 -235.765625 "/></g></g></g></g></g></svg>